<svg width="507" height="126" viewBox="0 0 507 126" fill="none" xmlns="http://www.w3.org/2000/svg">
<path d="M26.688 94.248C22.976 94.248 19.488 93.256 16.224 91.272C12.96 89.224 10.336 86.504 8.352 83.112C6.432 79.72 5.472 76.072 5.472 72.168V58.824C5.472 54.92 6.432 51.272 8.352 47.88C10.272 44.488 12.864 41.8 16.128 39.816C19.392 37.768 22.944 36.744 26.784 36.744C29.216 36.744 31.552 37.128 33.792 37.896C36.096 38.664 38.08 39.752 39.744 41.16V21.48C39.744 20.904 39.936 20.424 40.32 20.04C40.704 19.656 41.184 19.464 41.76 19.464H49.248C49.824 19.464 50.304 19.656 50.688 20.04C51.072 20.424 51.264 20.904 51.264 21.48V90.984C51.264 91.56 51.072 92.04 50.688 92.424C50.304 92.808 49.824 93 49.248 93H43.008C42.432 93 41.952 92.808 41.568 92.424C41.184 92.04 40.992 91.56 40.992 90.984V86.376C39.264 89 37.184 90.984 34.752 92.328C32.32 93.608 29.632 94.248 26.688 94.248ZM28.32 83.208C31.456 83.208 34.144 82.12 36.384 79.944C38.624 77.704 39.744 75.016 39.744 71.88V59.112C39.744 55.976 38.624 53.32 36.384 51.144C34.144 48.904 31.456 47.784 28.32 47.784C25.184 47.784 22.496 48.904 20.256 51.144C18.08 53.32 16.992 55.976 16.992 59.112V71.88C16.992 75.016 18.08 77.704 20.256 79.944C22.496 82.12 25.184 83.208 28.32 83.208ZM81.0465 94.248C75.6705 94.248 71.2865 92.744 67.8945 89.736C64.5665 86.664 62.9025 82.696 62.9025 77.832C62.9025 73.416 64.4385 69.768 67.5105 66.888C70.5825 63.944 74.9025 62.024 80.4705 61.128C81.8785 61 83.2225 60.808 84.5025 60.552C88.9825 60.04 91.7025 59.656 92.6625 59.4C95.0305 59.016 96.2145 57.672 96.2145 55.368C96.2145 53 95.2225 51.112 93.2385 49.704C91.3185 48.232 88.8865 47.496 85.9425 47.496C80.7585 47.496 76.9825 49.384 74.6145 53.16C74.1025 53.992 73.4945 54.408 72.7905 54.408C72.2785 54.408 71.8625 54.28 71.5425 54.024L66.1665 50.376C65.5905 49.992 65.3025 49.448 65.3025 48.744C65.3025 48.552 65.3665 48.264 65.4945 47.88C67.3505 44.36 70.1025 41.64 73.7505 39.72C77.3985 37.736 81.5265 36.744 86.1345 36.744C90.3585 36.744 94.0705 37.544 97.2705 39.144C100.471 40.744 102.935 43.016 104.663 45.96C106.455 48.904 107.351 52.296 107.351 56.136V90.984C107.351 91.56 107.159 92.04 106.775 92.424C106.391 92.808 105.911 93 105.335 93H98.8065C98.2305 93 97.7505 92.84 97.3665 92.52C96.9825 92.136 96.7905 91.624 96.7905 90.984V87.24C92.3745 91.912 87.1265 94.248 81.0465 94.248ZM81.9105 83.976C84.4065 83.976 86.7745 83.336 89.0145 82.056C91.2545 80.776 93.0465 79.112 94.3905 77.064C95.7985 74.952 96.5025 72.744 96.5025 70.44V68.52L89.3025 69.576C85.3985 70.024 82.8705 70.376 81.7185 70.632C76.4705 71.592 73.8465 73.864 73.8465 77.448C73.8465 79.432 74.5825 81.032 76.0545 82.248C77.5265 83.4 79.4785 83.976 81.9105 83.976ZM129.941 31.56C129.365 31.56 128.885 31.368 128.501 30.984C128.117 30.6 127.924 30.12 127.924 29.544V19.08C127.924 18.504 128.117 18.024 128.501 17.64C128.885 17.256 129.365 17.064 129.941 17.064H136.469C137.045 17.064 137.525 17.256 137.909 17.64C138.293 18.024 138.484 18.504 138.484 19.08V29.544C138.484 30.12 138.293 30.6 137.909 30.984C137.525 31.368 137.045 31.56 136.469 31.56H129.941ZM132.245 93C130.901 93 129.749 92.552 128.789 91.656C127.893 90.696 127.445 89.544 127.445 88.2V48.936H119.669C119.093 48.936 118.613 48.744 118.229 48.36C117.845 47.976 117.653 47.496 117.653 46.92V40.008C117.653 39.432 117.845 38.952 118.229 38.568C118.613 38.184 119.093 37.992 119.669 37.992H134.165C135.509 37.992 136.629 38.472 137.525 39.432C138.485 40.328 138.965 41.448 138.965 42.792V82.056H146.741C147.317 82.056 147.797 82.248 148.181 82.632C148.565 83.016 148.757 83.496 148.757 84.072V90.984C148.757 91.56 148.565 92.04 148.181 92.424C147.797 92.808 147.317 93 146.741 93H132.245ZM167.162 93C166.01 93 165.018 92.616 164.186 91.848C163.418 91.016 163.034 90.024 163.034 88.872V30.6H154.298C153.722 30.6 153.242 30.408 152.858 30.024C152.474 29.64 152.282 29.16 152.282 28.584V21.48C152.282 20.904 152.474 20.424 152.858 20.04C153.242 19.656 153.722 19.464 154.298 19.464H170.426C171.578 19.464 172.538 19.88 173.306 20.712C174.138 21.48 174.554 22.44 174.554 23.592V81.864H183.29C183.866 81.864 184.346 82.056 184.73 82.44C185.114 82.824 185.306 83.304 185.306 83.88V90.984C185.306 91.56 185.114 92.04 184.73 92.424C184.346 92.808 183.866 93 183.29 93H167.162Z" fill="#525252"/>
<path d="M316.128 31.56C315.552 31.56 315.072 31.368 314.688 30.984C314.304 30.6 314.112 30.12 314.112 29.544V19.08C314.112 18.504 314.304 18.024 314.688 17.64C315.072 17.256 315.552 17.064 316.128 17.064H322.656C323.232 17.064 323.712 17.256 324.096 17.64C324.48 18.024 324.672 18.504 324.672 19.08V29.544C324.672 30.12 324.48 30.6 324.096 30.984C323.712 31.368 323.232 31.56 322.656 31.56H316.128ZM318.432 93C317.088 93 315.936 92.552 314.976 91.656C314.08 90.696 313.632 89.544 313.632 88.2V48.936H305.856C305.28 48.936 304.8 48.744 304.416 48.36C304.032 47.976 303.84 47.496 303.84 46.92V40.008C303.84 39.432 304.032 38.952 304.416 38.568C304.8 38.184 305.28 37.992 305.856 37.992H320.352C321.696 37.992 322.816 38.472 323.712 39.432C324.672 40.328 325.152 41.448 325.152 42.792V82.056H332.928C333.504 82.056 333.984 82.248 334.368 82.632C334.752 83.016 334.944 83.496 334.944 84.072V90.984C334.944 91.56 334.752 92.04 334.368 92.424C333.984 92.808 333.504 93 332.928 93H318.432ZM353.349 93C352.197 93 351.205 92.616 350.373 91.848C349.605 91.016 349.221 90.024 349.221 88.872V30.6H340.485C339.909 30.6 339.429 30.408 339.045 30.024C338.661 29.64 338.469 29.16 338.469 28.584V21.48C338.469 20.904 338.661 20.424 339.045 20.04C339.429 19.656 339.909 19.464 340.485 19.464H356.613C357.765 19.464 358.725 19.88 359.493 20.712C360.325 21.48 360.741 22.44 360.741 23.592V81.864H369.477C370.053 81.864 370.533 82.056 370.917 82.44C371.301 82.824 371.493 83.304 371.493 83.88V90.984C371.493 91.56 371.301 92.04 370.917 92.424C370.533 92.808 370.053 93 369.477 93H353.349ZM389.818 93C388.666 93 387.674 92.616 386.842 91.848C386.074 91.016 385.69 90.024 385.69 88.872V30.6H376.954C376.378 30.6 375.898 30.408 375.514 30.024C375.13 29.64 374.938 29.16 374.938 28.584V21.48C374.938 20.904 375.13 20.424 375.514 20.04C375.898 19.656 376.378 19.464 376.954 19.464H393.082C394.234 19.464 395.194 19.88 395.962 20.712C396.794 21.48 397.21 22.44 397.21 23.592V81.864H405.946C406.522 81.864 407.002 82.056 407.386 82.44C407.77 82.824 407.962 83.304 407.962 83.88V90.984C407.962 91.56 407.77 92.04 407.386 92.424C407.002 92.808 406.522 93 405.946 93H389.818ZM465.731 93C465.155 93 464.675 92.808 464.291 92.424C463.907 92.04 463.715 91.56 463.715 90.984V83.88C463.715 83.304 463.907 82.824 464.291 82.44C464.675 82.056 465.155 81.864 465.731 81.864H473.027V48.84H464.771C464.195 48.84 463.715 48.648 463.331 48.264C462.947 47.88 462.755 47.4 462.755 46.824V40.008C462.755 39.432 462.947 38.952 463.331 38.568C463.715 38.184 464.195 37.992 464.771 37.992H479.651C480.803 37.992 481.763 38.408 482.531 39.24C483.363 40.008 483.779 40.968 483.779 42.12V45.576L488.963 41.448C490.883 39.912 492.547 38.856 493.955 38.28C495.363 37.64 497.027 37.32 498.947 37.32H501.923C502.499 37.32 502.979 37.512 503.363 37.896C503.747 38.28 503.939 38.76 503.939 39.336V46.728C503.939 47.304 503.747 47.784 503.363 48.168C502.979 48.552 502.499 48.744 501.923 48.744H499.427C497.763 48.744 496.323 49.032 495.107 49.608C493.891 50.184 492.035 51.464 489.539 53.448L484.259 57.672V81.864H493.763C494.339 81.864 494.819 82.056 495.203 82.44C495.587 82.824 495.779 83.304 495.779 83.88V90.984C495.779 91.56 495.587 92.04 495.203 92.424C494.819 92.808 494.339 93 493.763 93H465.731Z" fill="#41989E"/>
<path d="M435.848 93.256C431.688 93.256 427.848 92.232 424.328 90.184C420.872 88.136 418.12 85.352 416.072 81.832C414.024 78.312 413 74.472 413 70.312V59.944C413 55.784 414.024 51.944 416.072 48.424C418.12 44.904 420.872 42.12 424.328 40.072C427.848 38.024 431.688 37 435.848 37C446.5 40.072 455.5 47 458.696 59.944V66.376C458.696 67.528 458.28 68.52 457.448 69.352C456.68 70.12 455.72 70.504 454.568 70.504L450.5 75L446.5 70.312H433.028C428.716 69.9897 426.888 69.3741 424.328 67.756L424.52 70.984C424.52 74.12 425.608 76.808 427.784 79.048C430.024 81.224 432.712 82.312 435.848 82.312H444L447.176 78L451.112 82.312C451.688 82.312 452.168 82.504 452.552 82.888C452.936 83.272 453.128 83.752 453.128 84.328V91.24C453.128 91.816 452.936 92.296 452.552 92.68C452.168 93.064 451.688 93.256 451.112 93.256H435.848ZM447.176 60.136V59.272C445.5 56 449.5 56.5 434.528 48.424C431.392 48.424 430.024 49.064 427.784 51.304C425.608 53.48 424.52 56.136 424.52 59.272V60.136H447.176Z" fill="#41989E"/>
<path d="M187.532 114.597C186.86 114.386 186.428 113.948 186.234 113.283C186.022 112.679 186.143 112.08 186.599 111.486L195.627 99.4325L193.765 42.6865C193.759 42.2818 193.784 41.9878 193.842 41.8047C194.034 41.1942 194.401 40.7731 194.944 40.5414C195.506 40.2486 196.123 40.2079 196.794 40.4193L203.204 42.4373C203.814 42.6295 204.306 42.9856 204.679 43.5056C205.113 44.0448 205.326 44.6485 205.317 45.3166L206.176 85.7446L220.453 66.2145L230.041 53.1002C230.416 52.5474 230.905 52.1647 231.509 51.9522C232.174 51.7589 232.811 51.7583 233.422 51.9505L239.374 53.8243C240.045 54.0357 240.527 54.4224 240.82 54.9842C241.132 55.485 241.192 56.0407 241 56.6511C240.942 56.8343 240.795 57.0898 240.557 57.4176L232.465 68.1986C231.434 68.3705 230.5 68.5 230.1 71.3483C229.7 74.1966 197.048 115.379 197.048 115.379C196.612 115.913 196.092 116.286 195.488 116.498C194.884 116.711 194.247 116.711 193.575 116.5L187.532 114.597Z" fill="#525252"/>
<path d="M222.649 87.6524C221.563 93.2032 221.084 103.094 222.649 107.635C226.996 115.406 224.823 120.957 222.649 120.957C215.566 120.957 217.216 112.076 219.389 108.745C220.363 101.902 220.476 93.2032 219.389 89.8727C218.302 86.5422 205.262 107.635 208.522 100.974C211.782 94.3134 224.823 75.4406 229.17 71C235.061 74.4089 224.823 83.2118 222.649 87.6524Z" fill="#D13531"/>
<path d="M224.266 111.192C226.497 118.963 223.719 122.017 220.941 120.706C219.871 120.201 218.303 119.847 221.563 119.847C224.345 117.952 223.736 112.076 222.649 109.856C222.668 109.784 221.614 104.917 221.563 104.305C221.55 104.147 221.528 98.7664 221.563 97.6438C221.57 97.4027 221.834 93.3554 221.844 93.9385C221.792 94.6846 221.563 99.8642 221.662 100.331C221.544 99.9683 222.03 106.786 222.649 107.635C223.002 107.991 224.186 111.236 224.266 111.192Z" fill="#951512"/>
<path d="M229.17 71C232.43 73.2203 230.362 76.3876 230.257 76.5508C228.654 79.8249 230.257 75.4406 230.257 74.3305C230.283 73.2575 229.455 71.8749 229.17 71Z" fill="#951512"/>
<path d="M217.483 90.4298C219.385 87.5467 220.476 89.8727 219.635 90.8062C219.265 89.6458 219.382 88.7355 217.483 90.4298Z" fill="#951512"/>
<path d="M222.156 90.8062C221.563 87.6524 222.65 85.4321 224.543 84.785C222.65 87.6524 222.65 87.6524 222.156 90.8062Z" fill="#951512"/>
<path d="M289.744 92.1693C288.592 92.1693 287.664 91.7213 286.96 90.8253L265.36 63.4653H261.712V90.1533C261.712 90.7293 261.52 91.2093 261.136 91.5933C260.752 91.9773 260.272 92.1693 259.696 92.1693H252.016C251.44 92.1693 250.96 91.9773 250.576 91.5933C250.192 91.2093 250 90.7293 250 90.1533V25.5453C250 24.9693 250.192 24.4893 250.576 24.1053C250.96 23.7213 251.44 23.5293 252.016 23.5293H259.696C260.272 23.5293 260.752 23.7213 261.136 24.1053C261.52 24.4893 261.712 24.9693 261.712 25.5453V52.6173H264.88C273.724 53.5905 300.53 18.4176 298.936 21.7653C297.342 25.113 293 41.7195 275.056 57.4173L300.112 89.2893C300.432 89.7373 300.592 90.1533 300.592 90.5373C300.592 90.9853 300.4 91.4013 300.016 91.7853C299.696 92.1053 299.248 92.2653 298.672 92.2653L289.744 92.1693Z" fill="#41989E"/>
<path d="M299 21.7195C293.5 36.2195 285 49.7195 275 57.2195C274.5 56.2195 266 57.2195 272.5 55.2195C279 53.2195 289.991 39.9542 299 21.7195Z" fill="#18828A"/>
<path d="M290.459 40.9957C290.128 42.661 289.982 45.6283 290.459 46.9906C291.782 49.3219 291.12 50.9872 290.459 50.9872C288.303 50.9872 288.805 48.3228 289.466 47.3236C289.763 45.2707 289.797 42.661 289.466 41.6618C289.136 40.6627 285.167 46.9906 286.159 44.9923C287.151 42.994 291.12 37.3322 292.443 36C294.236 37.0227 291.12 39.6635 290.459 40.9957Z" fill="#D13531"/>
<path d="M290.95 48.0577C291.629 50.389 290.784 51.3051 289.939 50.9117C289.613 50.7602 289.136 50.6541 290.128 50.6541C290.975 50.0857 290.789 48.3228 290.459 47.6567C290.464 47.6352 290.143 46.175 290.128 45.9914C290.124 45.944 290.117 44.3299 290.128 43.9932C290.13 43.9208 290.21 42.7066 290.214 42.8816C290.198 43.1054 290.128 44.6592 290.158 44.7992C290.122 44.6905 290.27 46.7357 290.459 46.9906C290.566 47.0973 290.926 48.0708 290.95 48.0577Z" fill="#951512"/>
<path d="M292.443 36C293.435 36.6661 292.806 37.6163 292.774 37.6652C292.286 38.6475 292.774 37.3322 292.774 36.9991C292.782 36.6773 292.53 36.2625 292.443 36Z" fill="#951512"/>
<path d="M288.886 41.8289C289.465 40.964 289.797 41.6618 289.541 41.9419C289.428 41.5937 289.464 41.3207 288.886 41.8289Z" fill="#951512"/>
<path d="M290.308 41.9419C290.128 40.9957 290.459 40.3296 291.035 40.1355C290.459 40.9957 290.459 40.9957 290.308 41.9419Z" fill="#951512"/>
<path d="M297.185 25.3305C296.948 26.4406 296.844 28.4189 297.185 29.3271C298.13 30.8813 297.657 31.9914 297.185 31.9914C295.645 31.9914 296.003 30.2152 296.476 29.5491C296.688 28.1805 296.712 26.4406 296.476 25.7745C296.24 25.1084 293.405 29.3271 294.113 27.9949C294.822 26.6627 297.657 22.8881 298.602 22C299.883 22.6818 297.657 24.4424 297.185 25.3305Z" fill="#D13531"/>
<path d="M297.536 30.0385C298.021 31.5927 297.417 32.2034 296.813 31.9411C296.581 31.8401 296.24 31.7694 296.948 31.7694C297.553 31.3905 297.421 30.2152 297.185 29.7711C297.189 29.7568 296.96 28.7834 296.948 28.661C296.946 28.6294 296.941 27.5533 296.948 27.3288C296.95 27.2805 297.007 26.4711 297.01 26.5877C296.998 26.7369 296.948 27.7728 296.97 27.8661C296.944 27.7937 297.05 29.1571 297.185 29.3271C297.261 29.3982 297.519 30.0472 297.536 30.0385Z" fill="#951512"/>
<path d="M298.602 22C299.311 22.4441 298.861 23.0775 298.838 23.1102C298.49 23.765 298.838 22.8881 298.838 22.6661C298.844 22.4515 298.664 22.175 298.602 22Z" fill="#951512"/>
<path d="M296.062 25.886C296.475 25.3093 296.712 25.7745 296.529 25.9612C296.449 25.7292 296.474 25.5471 296.062 25.886Z" fill="#951512"/>
<path d="M297.077 25.9612C296.948 25.3305 297.185 24.8864 297.596 24.757C297.185 25.3305 297.185 25.3305 297.077 25.9612Z" fill="#951512"/>
</svg>
