<svg width="39" height="39" viewBox="0 0 39 39" fill="none" xmlns="http://www.w3.org/2000/svg">
<path d="M34.259 36.7423C34.3291 36.6174 34.4022 36.4955 34.451 36.3675C34.6947 35.749 34.7191 35.292 35.3346 35.036C35.6454 34.905 36.3279 34.707 36.6508 34.6095C37.2267 34.4389 37.702 33.9575 37.8605 33.3755C38.0189 32.7935 37.8544 32.1385 37.443 31.6997C36.8093 31.0233 35.7855 30.9502 34.8654 30.8466C32.3517 30.5571 30.5114 27.8942 28.8326 26.2153L25.4871 22.8699L22.8546 25.5024L26.0904 28.7382C27.7662 30.4139 30.6637 32.3 30.5784 34.9233C30.5632 35.4139 30.4596 35.9196 30.615 36.3858C30.8252 37.0196 31.4651 37.4126 32.0958 37.635C32.4248 37.7508 32.7813 37.8361 33.1226 37.763C33.6375 37.6503 33.9909 37.2176 34.259 36.7423Z" fill="#C8DEE9"/>
<path d="M34.6003 33.6771C33.9391 33.7472 33.8934 34.5698 34.058 35.3102C34.1159 35.5692 34.253 35.8465 34.4754 35.944C34.6795 36.0323 34.7039 35.4656 35.1457 35.1488C35.2889 35.0452 36.4102 34.8319 37.0805 34.4206C37.2694 34.3048 37.2267 34.0214 37.0073 33.9757C36.27 33.8234 34.8959 33.6436 34.6003 33.6771ZM31.1238 28.6528C31.1238 28.6528 31.1238 28.6559 31.1238 28.6528C31.0507 28.5797 30.225 28.6284 29.8777 29.2439C29.6522 29.6431 29.5425 30.1123 29.5973 30.5602C29.6735 31.1726 29.9447 31.7393 30.1915 32.2999C30.7003 33.4547 30.5419 34.1768 30.5297 34.2225C30.1458 31.9556 27.6108 30.2585 26.0873 28.7351L22.8516 25.4993L25.7156 22.815C26.13 23.2324 30.6881 28.2202 31.1238 28.6528Z" fill="#8ABFD1"/>
<path d="M30.6455 27.626C30.6607 27.6413 30.6759 27.6596 30.6912 27.6748L30.7034 27.7144C30.6851 27.6839 30.6638 27.6565 30.6455 27.626Z" fill="#A5C7D3"/>
<path d="M4.74093 36.7423C4.67085 36.6174 4.60687 36.4925 4.54898 36.3675C4.26257 35.7642 3.94875 35.097 3.33328 34.838C3.0225 34.707 2.6721 34.707 2.34914 34.6095C1.77328 34.4389 1.29796 33.9575 1.13953 33.3755C0.981089 32.7935 1.14562 32.1385 1.55695 31.6997C2.1907 31.0233 3.21445 30.9502 4.13461 30.8466C6.64828 30.5571 8.48859 27.8942 10.1674 26.2153L13.5129 22.8699L16.1454 25.5024L12.9096 28.7382C11.2338 30.4139 8.33625 32.3 8.42156 34.9233C8.43679 35.4139 8.54039 35.9196 8.38499 36.3858C8.17476 37.0196 7.53492 37.4126 6.90422 37.635C6.57515 37.7508 6.21867 37.8361 5.87742 37.763C5.3625 37.6503 5.00906 37.2176 4.74093 36.7423Z" fill="#C8DEE9"/>
<path d="M7.87617 28.6528C7.87617 28.6528 7.87617 28.6559 7.87617 28.6528C7.94929 28.5797 8.775 28.6284 9.12234 29.2439C9.34781 29.6431 9.4575 30.1123 9.40265 30.5602C9.32648 31.1726 9.05531 31.7393 8.80851 32.2999C8.29968 33.4547 8.45812 34.1768 8.47031 34.2225C8.85422 31.9556 11.3892 30.2585 12.9127 28.7351C13.0955 28.5553 16.1454 25.5024 16.1454 25.5024L13.2813 22.8181C12.87 23.2324 8.31187 28.2202 7.87617 28.6528Z" fill="#8ABFD1"/>
<path d="M8.35449 27.626C8.33926 27.6413 8.32402 27.6596 8.30879 27.6748L8.2966 27.7144C8.31488 27.6839 8.33621 27.6565 8.35449 27.626Z" fill="#A5C7D3"/>
<path d="M4.35091 33.6771C5.01208 33.7472 5.05778 34.5698 4.89325 35.3102C4.83536 35.5692 4.69825 35.8465 4.47583 35.944C4.27169 36.0323 4.24731 35.4656 3.80552 35.1488C3.66231 35.0452 2.54106 34.8319 1.87075 34.4205C1.68185 34.3048 1.7245 34.0214 1.94388 33.9757C2.68122 33.8234 4.05536 33.6436 4.35091 33.6771Z" fill="#8ABFD1"/>
<path d="M34.259 2.25776C34.3291 2.38268 34.3931 2.5076 34.451 2.63253C34.7374 3.23581 35.0512 3.90307 35.6667 4.16206C35.9775 4.29307 36.3279 4.29307 36.6508 4.39057C37.2267 4.5612 37.702 5.0426 37.8605 5.62456C38.0189 6.20346 37.8544 6.86159 37.443 7.30034C36.8093 7.97674 35.7855 8.04987 34.8654 8.15346C32.3517 8.44292 30.5114 11.1059 28.8326 12.7847L25.4871 16.1302L22.8546 13.4977L26.0904 10.2619C27.7662 8.58612 30.6637 6.7001 30.5784 4.07675C30.5632 3.5862 30.4596 3.08042 30.615 2.61425C30.8252 1.9805 31.4651 1.58745 32.0958 1.36503C32.4248 1.24925 32.7813 1.16393 33.1226 1.23706C33.6375 1.34979 33.9909 1.78245 34.259 2.25776Z" fill="#C8DEE9"/>
<path d="M30.6455 11.374C30.6607 11.3588 30.6759 11.3405 30.6912 11.3253L30.7034 11.2856C30.6851 11.3161 30.6638 11.3435 30.6455 11.374Z" fill="#A5C7D3"/>
<path d="M36.5961 6.86763C35.0939 6.8981 34.7222 6.63911 34.3353 6.49896C33.0922 6.05411 32.76 6.87982 33.1074 7.53794C33.5339 8.34841 35.2554 8.30575 36.526 7.84872C36.7972 7.75122 37.501 7.43739 37.5863 7.10529C37.7204 6.58427 36.8124 6.86154 36.5961 6.86763ZM22.8547 13.4976C22.8547 13.4976 27.1477 9.46661 28.0618 8.48552C29.9112 8.67138 30.9136 9.83833 31.069 10.4233C30.0879 11.3343 26.6023 15.015 25.4872 16.1301L22.8547 13.4976Z" fill="#8ABFD1"/>
<path d="M4.74093 2.25776C4.67085 2.38268 4.60687 2.5076 4.54898 2.63253C4.26257 3.23581 3.94875 3.90307 3.33328 4.16206C3.0225 4.29307 2.6721 4.29307 2.34914 4.39057C1.77328 4.5612 1.29796 5.0426 1.13953 5.62456C0.981089 6.20346 1.14562 6.86159 1.55695 7.30034C2.1907 7.97674 3.21445 8.04987 4.13461 8.15346C6.64828 8.44292 8.48859 11.1059 10.1674 12.7847L13.5129 16.1302L16.1454 13.4977L12.9096 10.2619C11.2338 8.58612 8.33625 6.7001 8.42156 4.07675C8.43679 3.5862 8.54039 3.08042 8.38499 2.61425C8.17476 1.9805 7.53492 1.58745 6.90422 1.36503C6.57515 1.24925 6.21867 1.16393 5.87742 1.23706C5.3625 1.34979 5.00906 1.78245 4.74093 2.25776Z" fill="#C8DEE9"/>
<path d="M8.35449 11.374C8.33926 11.3588 8.32402 11.3405 8.30879 11.3253L8.2966 11.2856C8.31488 11.3161 8.33621 11.3435 8.35449 11.374Z" fill="#A5C7D3"/>
<path d="M2.40398 6.83412C3.90609 6.86459 4.27781 6.60561 4.66476 6.46545C5.90789 6.02061 6.24 6.84631 5.89265 7.50443C5.46609 8.3149 3.74461 8.27225 2.47406 7.81521C2.20289 7.71771 1.49906 7.40389 1.41375 7.07178C1.27968 6.55381 2.18765 6.83107 2.40398 6.83412ZM16.1454 13.4976C16.1454 13.4976 11.4684 9.12232 10.5544 8.14123C8.11382 8.67139 7.69031 10.1613 7.69031 10.1613C7.69031 10.1613 12.3947 15.0119 13.5098 16.1271C13.5129 16.1301 16.1454 13.4976 16.1454 13.4976Z" fill="#8ABFD1"/>
<path d="M8.61957 20.865C8.4916 20.0942 7.9584 16.6664 8.44285 13.973C8.75364 12.2576 9.59457 10.9292 10.792 9.79573C13.0985 7.61112 16.2398 6.58737 19.241 6.49901C19.2562 6.49597 19.2745 6.49597 19.2897 6.49597C19.305 6.49597 19.3232 6.49292 19.3385 6.49292C19.3659 6.49292 19.3933 6.49597 19.4177 6.49597C19.4451 6.49597 19.4725 6.49292 19.4969 6.49292C19.5121 6.49292 19.5304 6.49597 19.5457 6.49597C19.5609 6.49597 19.5792 6.49292 19.5944 6.49901C22.5956 6.58737 25.7369 7.61112 28.0434 9.79573C29.2378 10.9292 30.0818 12.2576 30.3925 13.973C30.88 16.6664 30.3438 20.0942 30.2158 20.865C30.0422 21.9162 30.5022 23.0771 30.5936 24.1252C30.6911 25.2647 30.1549 26.1483 29.1921 26.7729C28.3877 27.2939 27.4554 27.5712 26.587 27.9764C25.5541 28.4578 26.4925 30.1946 26.1117 31.0721C25.9197 31.5169 25.4993 31.8185 25.0666 32.0349C24.5151 32.3091 23.8783 32.4828 23.2811 32.3304C23.3725 32.3548 23.1105 32.8789 22.7632 33.0921C22.4493 33.2871 22.0563 33.4852 21.6937 33.5644C20.9686 33.7228 20.2525 33.4578 19.8077 33.2262C19.5639 33.1013 19.2775 33.1013 19.0368 33.2262C18.5889 33.4578 17.8729 33.7259 17.1508 33.5644C16.6054 33.4456 16.121 33.1226 15.7736 32.6991C15.6121 32.501 15.3593 32.3914 15.1033 32.4096C14.3447 32.4584 13.1838 32.1507 12.678 31.005C12.3977 30.3682 12.6811 29.6187 12.4921 28.9514C12.1753 27.821 11.0632 27.5407 10.1674 27.0167C8.98215 26.3189 8.28137 25.542 8.24785 24.4421C8.20215 23.2721 8.76887 21.7669 8.61957 20.865Z" fill="#E1E7EA"/>
<path d="M22.1362 20.8656C21.695 19.2191 22.5509 17.5591 24.0479 17.1581C25.5449 16.757 27.1161 17.7666 27.5573 19.4131C27.9984 21.0597 27.1425 22.7196 25.6455 23.1207C24.1485 23.5218 22.5773 22.5122 22.1362 20.8656Z" fill="#424242"/>
<path d="M13.1864 23.1219C11.6894 22.7208 10.8334 21.0609 11.2746 19.4143C11.7157 17.7678 13.2869 16.7582 14.7839 17.1593C16.2809 17.5603 17.1369 19.2203 16.6957 20.8668C16.2546 22.5134 14.6834 23.523 13.1864 23.1219Z" fill="#424242"/>
<path d="M21.2184 25.2037C21.2184 24.2074 20.411 21.7425 19.4146 21.7425C18.4183 21.7425 17.6109 24.2074 17.6109 25.2037C17.6109 27.2269 19.4146 25.8497 19.4146 25.8497C19.4146 25.8497 21.2184 27.3457 21.2184 25.2037Z" fill="#424242"/>
<path d="M23.793 32.3883C23.8174 32.1842 23.7656 30.1062 23.7656 29.7375C23.7656 29.4755 23.5554 29.2653 23.2934 29.2653C23.0313 29.2653 22.8211 29.4785 22.8211 29.7375C22.8211 30.0635 22.9491 32.3974 22.9491 32.3974C22.9491 32.3974 23.3756 32.5071 23.793 32.3883ZM19.8839 33.2932C19.8839 33.2932 19.8809 32.9733 19.8809 32.8088V29.7375C19.8809 29.4755 19.6706 29.2653 19.4086 29.2653C19.1466 29.2653 18.9363 29.4785 18.9363 29.7375V31.4011C18.9363 31.7393 18.9546 33.2932 18.9546 33.2932C19.6859 33.019 19.8839 33.2932 19.8839 33.2932ZM15.9351 32.6564C15.9351 32.6564 15.9808 30.1336 15.9808 29.7375C15.9808 29.4755 15.7676 29.2653 15.5086 29.2653C15.2466 29.2653 15.0363 29.4785 15.0363 29.7375C15.0363 30.161 15.0394 32.4127 15.0394 32.4127C15.0394 32.4127 15.2892 32.4005 15.4812 32.434C15.5634 32.4431 15.9351 32.6564 15.9351 32.6564Z" fill="#8ABFD1"/>
<path d="M19.4177 32.1049C19.6493 32.1232 19.8808 32.1506 19.8839 32.1781C19.954 32.9794 21.1179 33.0312 21.712 32.9032C22.0563 32.8271 22.4433 32.7113 22.6535 32.4157C22.8515 32.1415 22.9399 31.7942 22.9369 31.459C22.9369 31.4407 23.7961 31.3493 23.7961 31.3493C23.7961 31.3493 23.854 31.8216 24.4359 31.7759C25.3926 31.6997 25.5815 31.392 25.7857 31.0538C26.0416 30.6272 26.133 29.6827 26.133 29.6827C26.5352 31.3828 25.6821 32.0105 25.2586 32.2421C24.4664 32.6747 23.467 32.4462 23.467 32.4462C23.467 32.4462 23.0679 33.083 22.7236 33.2963C22.4097 33.4913 22.0776 33.5888 21.7151 33.668C20.9899 33.8264 20.2739 33.5614 19.829 33.3298C19.7011 33.2628 19.5609 33.2353 19.4238 33.2384V32.1049H19.4177ZM19.4177 32.1049C19.1862 32.1232 18.9546 32.1506 18.9515 32.1781C18.8815 32.9794 17.7176 33.0312 17.1234 32.9032C16.7791 32.8271 16.3922 32.7113 16.1819 32.4157C15.9839 32.1415 15.8955 31.7942 15.8986 31.459C15.8986 31.4407 15.0394 31.3493 15.0394 31.3493C15.0394 31.3493 14.9815 31.8216 14.3995 31.7759C13.4428 31.6997 13.2539 31.392 13.0497 31.0538C12.7938 30.6272 12.5501 29.6827 12.5501 29.6827C12.2637 31.4164 13.1533 32.0105 13.5769 32.2421C14.369 32.6747 15.3684 32.4462 15.3684 32.4462C15.3684 32.4462 15.7676 33.083 16.1119 33.2963C16.4257 33.4913 16.7578 33.5888 17.1204 33.668C17.8455 33.8264 18.5615 33.5614 19.0064 33.3298C19.1344 33.2628 19.2745 33.2353 19.4116 33.2384V32.1049H19.4177Z" fill="#8ABFD1"/>
</svg>
