<svg width="507" height="126" viewBox="0 0 507 126" fill="none" xmlns="http://www.w3.org/2000/svg">
<path d="M26.688 94.248C22.976 94.248 19.488 93.256 16.224 91.272C12.96 89.224 10.336 86.504 8.352 83.112C6.432 79.72 5.472 76.072 5.472 72.168V58.824C5.472 54.92 6.432 51.272 8.352 47.88C10.272 44.488 12.864 41.8 16.128 39.816C19.392 37.768 22.944 36.744 26.784 36.744C29.216 36.744 31.552 37.128 33.792 37.896C36.096 38.664 38.08 39.752 39.744 41.16V21.48C39.744 20.904 39.936 20.424 40.32 20.04C40.704 19.656 41.184 19.464 41.76 19.464H49.248C49.824 19.464 50.304 19.656 50.688 20.04C51.072 20.424 51.264 20.904 51.264 21.48V90.984C51.264 91.56 51.072 92.04 50.688 92.424C50.304 92.808 49.824 93 49.248 93H43.008C42.432 93 41.952 92.808 41.568 92.424C41.184 92.04 40.992 91.56 40.992 90.984V86.376C39.264 89 37.184 90.984 34.752 92.328C32.32 93.608 29.632 94.248 26.688 94.248ZM28.32 83.208C31.456 83.208 34.144 82.12 36.384 79.944C38.624 77.704 39.744 75.016 39.744 71.88V59.112C39.744 55.976 38.624 53.32 36.384 51.144C34.144 48.904 31.456 47.784 28.32 47.784C25.184 47.784 22.496 48.904 20.256 51.144C18.08 53.32 16.992 55.976 16.992 59.112V71.88C16.992 75.016 18.08 77.704 20.256 79.944C22.496 82.12 25.184 83.208 28.32 83.208ZM81.0465 94.248C75.6705 94.248 71.2865 92.744 67.8945 89.736C64.5665 86.664 62.9025 82.696 62.9025 77.832C62.9025 73.416 64.4385 69.768 67.5105 66.888C70.5825 63.944 74.9025 62.024 80.4705 61.128C81.8785 61 83.2225 60.808 84.5025 60.552C88.9825 60.04 91.7025 59.656 92.6625 59.4C95.0305 59.016 96.2145 57.672 96.2145 55.368C96.2145 53 95.2225 51.112 93.2385 49.704C91.3185 48.232 88.8865 47.496 85.9425 47.496C80.7585 47.496 76.9825 49.384 74.6145 53.16C74.1025 53.992 73.4945 54.408 72.7905 54.408C72.2785 54.408 71.8625 54.28 71.5425 54.024L66.1665 50.376C65.5905 49.992 65.3025 49.448 65.3025 48.744C65.3025 48.552 65.3665 48.264 65.4945 47.88C67.3505 44.36 70.1025 41.64 73.7505 39.72C77.3985 37.736 81.5265 36.744 86.1345 36.744C90.3585 36.744 94.0705 37.544 97.2705 39.144C100.471 40.744 102.935 43.016 104.663 45.96C106.455 48.904 107.351 52.296 107.351 56.136V90.984C107.351 91.56 107.159 92.04 106.775 92.424C106.391 92.808 105.911 93 105.335 93H98.8065C98.2305 93 97.7505 92.84 97.3665 92.52C96.9825 92.136 96.7905 91.624 96.7905 90.984V87.24C92.3745 91.912 87.1265 94.248 81.0465 94.248ZM81.9105 83.976C84.4065 83.976 86.7745 83.336 89.0145 82.056C91.2545 80.776 93.0465 79.112 94.3905 77.064C95.7985 74.952 96.5025 72.744 96.5025 70.44V68.52L89.3025 69.576C85.3985 70.024 82.8705 70.376 81.7185 70.632C76.4705 71.592 73.8465 73.864 73.8465 77.448C73.8465 79.432 74.5825 81.032 76.0545 82.248C77.5265 83.4 79.4785 83.976 81.9105 83.976ZM129.941 31.56C129.365 31.56 128.885 31.368 128.501 30.984C128.117 30.6 127.924 30.12 127.924 29.544V19.08C127.924 18.504 128.117 18.024 128.501 17.64C128.885 17.256 129.365 17.064 129.941 17.064H136.469C137.045 17.064 137.525 17.256 137.909 17.64C138.293 18.024 138.484 18.504 138.484 19.08V29.544C138.484 30.12 138.293 30.6 137.909 30.984C137.525 31.368 137.045 31.56 136.469 31.56H129.941ZM132.245 93C130.901 93 129.749 92.552 128.789 91.656C127.893 90.696 127.445 89.544 127.445 88.2V48.936H119.669C119.093 48.936 118.613 48.744 118.229 48.36C117.845 47.976 117.653 47.496 117.653 46.92V40.008C117.653 39.432 117.845 38.952 118.229 38.568C118.613 38.184 119.093 37.992 119.669 37.992H134.165C135.509 37.992 136.629 38.472 137.525 39.432C138.485 40.328 138.965 41.448 138.965 42.792V82.056H146.741C147.317 82.056 147.797 82.248 148.181 82.632C148.565 83.016 148.757 83.496 148.757 84.072V90.984C148.757 91.56 148.565 92.04 148.181 92.424C147.797 92.808 147.317 93 146.741 93H132.245ZM167.162 93C166.01 93 165.018 92.616 164.186 91.848C163.418 91.016 163.034 90.024 163.034 88.872V30.6H154.298C153.722 30.6 153.242 30.408 152.858 30.024C152.474 29.64 152.282 29.16 152.282 28.584V21.48C152.282 20.904 152.474 20.424 152.858 20.04C153.242 19.656 153.722 19.464 154.298 19.464H170.426C171.578 19.464 172.538 19.88 173.306 20.712C174.138 21.48 174.554 22.44 174.554 23.592V81.864H183.29C183.866 81.864 184.346 82.056 184.73 82.44C185.114 82.824 185.306 83.304 185.306 83.88V90.984C185.306 91.56 185.114 92.04 184.73 92.424C184.346 92.808 183.866 93 183.29 93H167.162Z" fill="black"/>
<path d="M288.232 93C287.08 93 286.152 92.552 285.448 91.656L263.848 64.296H260.2V90.984C260.2 91.56 260.008 92.04 259.624 92.424C259.24 92.808 258.76 93 258.184 93H250.504C249.928 93 249.448 92.808 249.064 92.424C248.68 92.04 248.488 91.56 248.488 90.984V26.376C248.488 25.8 248.68 25.32 249.064 24.936C249.448 24.552 249.928 24.36 250.504 24.36H258.184C258.76 24.36 259.24 24.552 259.624 24.936C260.008 25.32 260.2 25.8 260.2 26.376V53.448H263.368L285.448 25.704C286.152 24.808 287.112 24.36 288.328 24.36H297.064C297.64 24.36 298.088 24.552 298.408 24.936C298.792 25.256 298.984 25.64 298.984 26.088C298.984 26.472 298.824 26.888 298.504 27.336L273.544 58.248L298.6 90.12C298.92 90.568 299.08 90.984 299.08 91.368C299.08 91.816 298.888 92.232 298.504 92.616C298.184 92.936 297.736 93.096 297.16 93.096L288.232 93ZM316.472 31.56C315.896 31.56 315.416 31.368 315.032 30.984C314.648 30.6 314.456 30.12 314.456 29.544V19.08C314.456 18.504 314.648 18.024 315.032 17.64C315.416 17.256 315.896 17.064 316.472 17.064H323C323.576 17.064 324.056 17.256 324.44 17.64C324.824 18.024 325.016 18.504 325.016 19.08V29.544C325.016 30.12 324.824 30.6 324.44 30.984C324.056 31.368 323.576 31.56 323 31.56H316.472ZM318.776 93C317.432 93 316.28 92.552 315.32 91.656C314.424 90.696 313.976 89.544 313.976 88.2V48.936H306.2C305.624 48.936 305.144 48.744 304.76 48.36C304.376 47.976 304.184 47.496 304.184 46.92V40.008C304.184 39.432 304.376 38.952 304.76 38.568C305.144 38.184 305.624 37.992 306.2 37.992H320.696C322.04 37.992 323.16 38.472 324.056 39.432C325.016 40.328 325.496 41.448 325.496 42.792V82.056H333.272C333.848 82.056 334.328 82.248 334.712 82.632C335.096 83.016 335.288 83.496 335.288 84.072V90.984C335.288 91.56 335.096 92.04 334.712 92.424C334.328 92.808 333.848 93 333.272 93H318.776ZM353.693 93C352.541 93 351.549 92.616 350.717 91.848C349.949 91.016 349.565 90.024 349.565 88.872V30.6H340.829C340.253 30.6 339.773 30.408 339.389 30.024C339.005 29.64 338.813 29.16 338.813 28.584V21.48C338.813 20.904 339.005 20.424 339.389 20.04C339.773 19.656 340.253 19.464 340.829 19.464H356.957C358.109 19.464 359.069 19.88 359.837 20.712C360.669 21.48 361.085 22.44 361.085 23.592V81.864H369.821C370.397 81.864 370.877 82.056 371.261 82.44C371.645 82.824 371.837 83.304 371.837 83.88V90.984C371.837 91.56 371.645 92.04 371.261 92.424C370.877 92.808 370.397 93 369.821 93H353.693ZM390.162 93C389.01 93 388.018 92.616 387.186 91.848C386.418 91.016 386.034 90.024 386.034 88.872V30.6H377.298C376.722 30.6 376.242 30.408 375.858 30.024C375.474 29.64 375.282 29.16 375.282 28.584V21.48C375.282 20.904 375.474 20.424 375.858 20.04C376.242 19.656 376.722 19.464 377.298 19.464H393.426C394.578 19.464 395.538 19.88 396.306 20.712C397.138 21.48 397.554 22.44 397.554 23.592V81.864H406.29C406.866 81.864 407.346 82.056 407.73 82.44C408.114 82.824 408.306 83.304 408.306 83.88V90.984C408.306 91.56 408.114 92.04 407.73 92.424C407.346 92.808 406.866 93 406.29 93H390.162ZM466.075 93C465.499 93 465.019 92.808 464.635 92.424C464.251 92.04 464.059 91.56 464.059 90.984V83.88C464.059 83.304 464.251 82.824 464.635 82.44C465.019 82.056 465.499 81.864 466.075 81.864H473.371V48.84H465.115C464.539 48.84 464.059 48.648 463.675 48.264C463.291 47.88 463.099 47.4 463.099 46.824V40.008C463.099 39.432 463.291 38.952 463.675 38.568C464.059 38.184 464.539 37.992 465.115 37.992H479.995C481.147 37.992 482.107 38.408 482.875 39.24C483.707 40.008 484.123 40.968 484.123 42.12V45.576L489.307 41.448C491.227 39.912 492.891 38.856 494.299 38.28C495.707 37.64 497.371 37.32 499.291 37.32H502.267C502.843 37.32 503.323 37.512 503.707 37.896C504.091 38.28 504.283 38.76 504.283 39.336V46.728C504.283 47.304 504.091 47.784 503.707 48.168C503.323 48.552 502.843 48.744 502.267 48.744H499.771C498.107 48.744 496.667 49.032 495.451 49.608C494.235 50.184 492.379 51.464 489.883 53.448L484.603 57.672V81.864H494.107C494.683 81.864 495.163 82.056 495.547 82.44C495.931 82.824 496.123 83.304 496.123 83.88V90.984C496.123 91.56 495.931 92.04 495.547 92.424C495.163 92.808 494.683 93 494.107 93H466.075Z" fill="#384252"/>
<path d="M435.848 93.256C431.688 93.256 427.848 92.232 424.328 90.184C420.872 88.136 418.12 85.352 416.072 81.832C414.024 78.312 413 74.472 413 70.312V59.944C413 55.784 414.024 51.944 416.072 48.424C418.12 44.904 420.872 42.12 424.328 40.072C427.848 38.024 431.688 37 435.848 37C440.008 37 443.816 38.024 447.272 40.072C450.792 42.12 453.576 44.904 455.624 48.424C457.672 51.944 458.696 55.784 458.696 59.944V66.376C458.696 67.528 458.28 68.52 457.448 69.352C456.68 70.12 455.72 70.504 454.568 70.504L452.552 72.5L450.5 70.4677L433.028 70.312C428.716 69.9897 426.888 69.3741 424.328 67.756L424.52 70.984C424.52 74.12 425.608 76.808 427.784 79.048C430.024 81.224 432.712 82.312 435.848 82.312H446.5L449 80.5L451.112 82.312C451.688 82.312 452.168 82.504 452.552 82.888C452.936 83.272 453.128 83.752 453.128 84.328V91.24C453.128 91.816 452.936 92.296 452.552 92.68C452.168 93.064 451.688 93.256 451.112 93.256H435.848ZM447.176 60.136V59.272C440.528 55.756 439.409 48.424 434.528 48.424C431.392 48.424 430.024 49.064 427.784 51.304C425.608 53.48 424.52 56.136 424.52 59.272V60.136H447.176Z" fill="#384252"/>
<path d="M186.532 115.597C185.86 115.386 185.428 114.948 185.234 114.283C185.022 113.679 185.143 113.08 185.599 112.486L194.627 100.432L192.765 43.6865C192.759 43.2818 192.784 42.9878 192.842 42.8047C193.034 42.1942 193.401 41.7731 193.944 41.5414C194.506 41.2486 195.123 41.2079 195.794 41.4193L202.204 43.4373C202.814 43.6295 203.306 43.9856 203.679 44.5056C204.113 45.0448 204.326 45.6485 204.317 46.3166L205.176 86.7446L219.453 67.2145L229.041 54.1002C229.416 53.5474 229.905 53.1647 230.509 52.9522C231.174 52.7589 231.811 52.7583 232.422 52.9505L238.374 54.8243C239.045 55.0357 239.527 55.4224 239.82 55.9842C240.132 56.485 240.192 57.0407 240 57.6511C239.942 57.8343 239.795 58.0898 239.557 58.4176L231.465 69.1986C230.434 69.3705 229.5 69.5 229.1 72.3483C228.7 75.1966 196.048 116.379 196.048 116.379C195.612 116.913 195.092 117.286 194.488 117.498C193.884 117.711 193.247 117.711 192.575 117.5L186.532 115.597Z" fill="black"/>
<path d="M226 80C225.5 82.5 225.28 86.9549 226 89C228 92.5 227 95 226 95C222.741 95 223.5 91 224.5 89.5C224.948 86.418 225 82.5 224.5 81C224 79.5 218 89 219.5 86C221 83 227 74.5 229 72.5C231.71 74.0353 227 78 226 80Z" fill="#D13531"/>
<path d="M226.744 90.602C227.77 94.102 226.492 95.4774 225.214 94.8867C224.722 94.6592 224 94.5 225.5 94.5C226.78 93.6466 226.5 91 226 90C226.009 89.9678 225.524 87.7756 225.5 87.5C225.494 87.4289 225.484 85.0056 225.5 84.5C225.503 84.3914 225.625 82.5686 225.63 82.8312C225.605 83.1672 225.5 85.5 225.546 85.71C225.491 85.5469 225.715 88.6173 226 89C226.162 89.1603 226.707 90.6217 226.744 90.602Z" fill="#951512"/>
<path d="M229 72.5C230.5 73.5 229.549 74.9265 229.5 75C228.763 76.4746 229.5 74.5 229.5 74C229.512 73.5167 229.131 72.8941 229 72.5Z" fill="#951512"/>
<path d="M223.623 81.2509C224.498 79.9524 225 81 224.613 81.4204C224.443 80.8978 224.497 80.4878 223.623 81.2509Z" fill="#951512"/>
<path d="M225.773 81.4204C225.5 80 226 79 226.871 78.7086C226 80 226 80 225.773 81.4204Z" fill="#951512"/>
</svg>
